<svg width="21" height="20" viewBox="0 0 21 20" fill="none" xmlns="http://www.w3.org/2000/svg">
<path d="M10.1099 0C13.3278 0.0250331 16.017 2.35235 16.4994 5.53382C16.7096 6.92051 16.4691 8.22602 15.8304 9.45643C14.342 12.3231 12.837 15.1799 11.3411 18.042C11.0893 18.5245 10.7229 18.8393 10.16 18.8567C9.61534 18.8734 9.20647 18.6216 8.95842 18.1467C7.38361 15.1412 5.74735 12.1646 4.26358 9.11431C2.43085 5.35177 4.89168 0.785887 9.02062 0.119097C9.38094 0.0606862 9.74658 0.0386875 10.1099 0ZM10.1092 16.7084C10.1805 16.5916 10.2146 16.5408 10.2434 16.4869C11.5262 14.039 12.7976 11.5858 14.0955 9.14617C14.5726 8.24953 14.9277 7.33165 14.8829 6.30226C14.7593 3.43636 12.2453 1.36544 9.4037 1.77735C6.24346 2.23629 4.41833 5.6772 5.84066 8.53172C6.54917 9.95406 7.30396 11.3544 8.04054 12.7631C8.71795 14.058 9.39839 15.3513 10.1099 16.7077L10.1092 16.7084Z" fill="#666666"/>
<path d="M0 16.0112C0.0204816 15.1381 0.468043 14.466 1.14925 13.9889C1.74245 13.5739 2.40545 13.2492 3.06541 12.9443C3.51601 12.7364 3.98557 12.9754 4.15321 13.404C4.32086 13.8326 4.12059 14.2824 3.67683 14.5054C3.21561 14.7361 2.73316 14.9386 2.30835 15.2253C1.49667 15.7723 1.5035 16.2616 2.3038 16.8297C3.28085 17.5231 4.41265 17.8341 5.56113 18.0905C6.00339 18.1891 6.45626 18.2414 6.90002 18.3355C7.34607 18.4303 7.63129 18.8339 7.57668 19.2526C7.51902 19.6964 7.16553 20.0544 6.72252 19.993C4.69939 19.7123 2.71343 19.2943 1.05366 17.9896C0.424804 17.4958 0.0174473 16.857 0 16.0112Z" fill="#666666"/>
<path d="M20.2199 16.0313C20.2039 16.8498 19.7958 17.4666 19.1958 17.9741C18.2278 18.7918 17.0657 19.2151 15.8672 19.5367C15.1746 19.7226 14.4661 19.8568 13.7591 19.9805C12.9952 20.114 12.4627 19.5458 12.6993 18.8745C12.8215 18.5286 13.09 18.3723 13.4427 18.3162C14.7156 18.1136 15.9787 17.8603 17.1408 17.2777C17.5413 17.0767 17.9244 16.8149 18.2589 16.5168C18.6382 16.1793 18.6473 15.828 18.2483 15.5201C17.7651 15.1476 17.1985 14.8851 16.6864 14.5483C16.4558 14.3966 16.2062 14.213 16.0758 13.9824C15.921 13.7078 16.0022 13.3854 16.2351 13.1449C16.4596 12.9128 16.7388 12.7945 17.0589 12.9052C18.0367 13.2436 18.9379 13.7108 19.6274 14.5104C20.0181 14.9633 20.2191 15.4935 20.2199 16.0298V16.0313Z" fill="#666666"/>
<path d="M13.4608 6.75808C13.4631 8.63783 11.9748 10.1315 10.1003 10.13C8.23196 10.1284 6.74515 8.62646 6.75198 6.74594C6.75805 4.89122 8.24789 3.39455 10.0935 3.38772C11.9566 3.38089 13.4586 4.88439 13.4608 6.75808ZM11.7813 6.76415C11.7813 5.83717 11.0159 5.06493 10.1003 5.071C9.18018 5.07631 8.42768 5.84627 8.43223 6.77704C8.43678 7.68885 9.18094 8.4353 10.0943 8.44288C11.0205 8.45047 11.7806 7.69416 11.7813 6.76415Z" fill="#666666"/>
</svg>
