<svg width="20" height="20" viewBox="0 0 20 20" fill="none" xmlns="http://www.w3.org/2000/svg">
<path d="M13.8051 11.9059C13.7668 11.6989 13.6311 11.5107 13.4136 11.3622C12.726 10.8927 11.9251 10.3483 11.1257 9.82861C10.858 9.65464 10.7387 9.43116 10.741 9.10345C10.7485 7.71838 10.7455 6.3048 10.7425 4.97597C10.741 4.42629 10.4688 4.11133 9.99482 4.11133H9.99332C9.52613 4.11133 9.23516 4.44204 9.23366 4.97222C9.23216 5.47991 9.23216 5.99734 9.23291 6.49678C9.23291 6.70525 9.23291 6.91298 9.23291 7.12145C9.23441 7.13345 9.23516 7.14545 9.23516 7.1582V7.81586C9.23516 8.3153 9.23516 8.81474 9.23516 9.31418C9.23441 9.99209 9.46763 10.4848 9.94907 10.8207C10.7072 11.3502 11.5171 11.9029 12.5752 12.6123C12.7357 12.7195 12.909 12.7765 13.0762 12.7765C13.3169 12.7765 13.5284 12.6618 13.6724 12.4525C13.7931 12.2778 13.8388 12.0881 13.8051 11.9051V11.9059Z" fill="#666666"/>
<path d="M10.0105 0H9.9985C7.32434 0 4.8204 1.03112 2.94713 2.90289C1.07687 4.77165 0.0299963 7.28234 0 9.97225C0.0232471 12.6614 1.06262 15.1744 2.92688 17.0476C4.79715 18.9269 7.30334 19.9648 9.98425 19.97H10.003C12.6802 19.97 15.1879 18.9389 17.0641 17.0664C18.9419 15.1924 19.9783 12.6817 19.982 9.99775C19.9865 7.31684 18.9576 4.80465 17.0851 2.92463C15.2104 1.04162 12.6974 0.00299963 10.0105 0ZM9.994 18.4649H9.96101C5.29434 18.4469 1.50656 14.6337 1.51781 9.96325C1.52906 5.29959 5.33558 1.50506 10.0037 1.50506H10.0352C14.7034 1.52231 18.4912 5.33558 18.4784 10.006C18.4657 14.6704 14.6599 18.4649 9.99475 18.4649H9.994Z" fill="#666666"/>
</svg>
