<svg width="20" height="20" viewBox="0 0 20 20" fill="none" xmlns="http://www.w3.org/2000/svg">
<path d="M13.8866 20C11.8522 19.9445 10.3644 19.3521 9.14426 18.1357C6.70783 15.7068 4.2744 13.2756 1.84697 10.8385C-0.0727732 8.91046 -0.529463 6.15833 0.634383 3.65066C0.96059 2.948 1.28155 2.24309 1.59801 1.53594C2.33816 -0.122845 4.38389 -0.520293 5.68722 0.74929C6.25864 1.30647 6.83007 1.86439 7.37974 2.44332C8.19564 3.30195 8.37561 4.29782 7.94967 5.40093C7.7517 5.91386 7.54247 6.42229 7.33925 6.93372C7.20577 7.26968 7.25226 7.57489 7.51023 7.83286C9.05127 9.37615 10.5938 10.9179 12.1364 12.4597C12.4183 12.741 12.7408 12.759 13.0992 12.621C13.7577 12.3668 14.4071 12.0705 15.0857 11.8898C16.0141 11.6424 16.8427 11.9318 17.5289 12.5917C18.1123 13.1527 18.683 13.7271 19.2454 14.309C20.4265 15.5313 20.1551 17.4826 18.65 18.2595C17.6256 18.7889 16.5585 19.2478 15.4787 19.6543C14.8803 19.8793 14.2158 19.931 13.8851 19.9993L13.8866 20ZM13.5867 18.6877C14.0366 18.6052 14.5136 18.5902 14.932 18.4267C15.9856 18.0143 17.028 17.5666 18.0441 17.0709C18.746 16.7289 18.839 15.8103 18.2803 15.2351C17.7246 14.6622 17.1585 14.1005 16.587 13.5434C16.1573 13.1242 15.6519 13.0424 15.0962 13.2644C14.5758 13.4729 14.0606 13.6956 13.5342 13.8891C12.6943 14.1973 11.9009 14.0968 11.253 13.4601C9.65794 11.8928 8.07865 10.309 6.50836 8.71624C5.98418 8.18456 5.78695 7.51115 6.00068 6.79049C6.19415 6.13733 6.47611 5.50966 6.71983 4.8715C6.92755 4.32782 6.85631 3.82838 6.44837 3.40694C5.88594 2.82577 5.31602 2.25059 4.73334 1.68967C4.11467 1.09499 3.19005 1.28022 2.83009 2.06237C2.45964 2.86701 2.09144 3.6739 1.73899 4.4868C0.951592 6.30456 1.32279 8.40653 2.72511 9.82309C5.18478 12.3068 7.66096 14.7747 10.1439 17.2351C11.0865 18.1695 12.2429 18.6329 13.5867 18.6869V18.6877Z" fill="#666666"/>
</svg>
