<svg width="21" height="27" viewBox="0 0 21 27" fill="none" xmlns="http://www.w3.org/2000/svg">
<g clip-path="url(#clip0_606_9346)">
<ellipse cx="10.5081" cy="10.1146" rx="6.65462" ry="6.65462" fill="white"/>
<path d="M11.3117 0.388776C15.4296 0.390481 19.4971 3.75241 20.3766 8.44377C20.87 11.0745 20.3536 13.5212 18.8912 15.7565C16.6158 19.2335 14.3243 22.6994 12.0369 26.1678C11.2989 27.2876 10.0317 27.2851 9.29627 26.1678C7.02686 22.7215 4.7583 19.2735 2.48634 15.8289C-0.855141 10.7626 0.874826 4.16147 6.27522 1.40971C7.64982 0.709203 9.11987 0.381959 11.3117 0.388776ZM10.6981 4.2305C7.39757 4.22453 4.71143 6.87913 4.70547 10.1507C4.70035 13.4428 7.35922 16.1306 10.6334 16.1417C13.916 16.1528 16.6218 13.4777 16.6278 10.2138C16.6337 6.91919 13.9757 4.23646 10.6981 4.22964V4.2305Z" fill="#008EC6"/>
</g>
<defs>
<clipPath id="clip0_606_9346">
<rect width="19.777" height="26.6185" fill="white" transform="translate(0.78125 0.388672)"/>
</clipPath>
</defs>
</svg>
